/* XPM */
static char * brick_gray_xpm[] = {
"64 64 236 2",
"  	c #404040",
". 	c #3B3B3B",
"+ 	c #3F3F3F",
"@ 	c #3A3A3A",
"# 	c #2A2A2A",
"$ 	c #353535",
"% 	c #3E3E3E",
"& 	c #3C3C3C",
"* 	c #3D3D3D",
"= 	c #414141",
"- 	c #4B4B4B",
"; 	c #434343",
"> 	c #2F2F2F",
", 	c #303030",
"' 	c #3D3D3E",
") 	c #444444",
"! 	c #464647",
"~ 	c #494949",
"{ 	c #464646",
"] 	c #424242",
"^ 	c #363636",
"/ 	c #4C4C4C",
"( 	c #39393A",
"_ 	c #2E2E2E",
": 	c #484848",
"< 	c #454545",
"[ 	c #474647",
"} 	c #444445",
"| 	c #272727",
"1 	c #393939",
"2 	c #3A3B3A",
"3 	c #3E3E3F",
"4 	c #2D2D2D",
"5 	c #474747",
"6 	c #40403F",
"7 	c #424243",
"8 	c #252525",
"9 	c #383839",
"0 	c #3C3C3B",
"a 	c #414242",
"b 	c #474848",
"c 	c #292929",
"d 	c #363637",
"e 	c #4A4A4A",
"f 	c #474646",
"g 	c #474748",
"h 	c #2D2E2E",
"i 	c #313131",
"j 	c #454646",
"k 	c #373737",
"l 	c #3A3A3B",
"m 	c #383838",
"n 	c #343434",
"o 	c #333333",
"p 	c #353536",
"q 	c #2E2E2F",
"r 	c #2F2F30",
"s 	c #3B3C3C",
"t 	c #3C3C3D",
"u 	c #1E1E1E",
"v 	c #1C1C1C",
"w 	c #1B1B1B",
"x 	c #212121",
"y 	c #1D1D1D",
"z 	c #1A1A1A",
"A 	c #171717",
"B 	c #181818",
"C 	c #191919",
"D 	c #1F1F1F",
"E 	c #222222",
"F 	c #20201F",
"G 	c #1C1C1B",
"H 	c #202020",
"I 	c #212222",
"J 	c #2C2C2C",
"K 	c #323232",
"L 	c #313231",
"M 	c #333332",
"N 	c #313132",
"O 	c #393938",
"P 	c #424141",
"Q 	c #434443",
"R 	c #2B2B2B",
"S 	c #3B3A3A",
"T 	c #3E3E3D",
"U 	c #282828",
"V 	c #393838",
"W 	c #3F3F3E",
"X 	c #434342",
"Y 	c #4A4A49",
"Z 	c #444443",
"` 	c #474746",
" .	c #3D3D3C",
"..	c #232323",
"+.	c #505050",
"@.	c #494948",
"#.	c #4F4F4F",
"$.	c #515151",
"%.	c #4D4D4D",
"&.	c #454544",
"*.	c #30302F",
"=.	c #3B3C3B",
"-.	c #424241",
";.	c #484849",
">.	c #535353",
",.	c #525252",
"'.	c #4E4E4E",
").	c #4F504F",
"!.	c #545454",
"~.	c #3A3939",
"{.	c #4C4D4D",
"].	c #5C5C5C",
"^.	c #555555",
"/.	c #5D5D5D",
"(.	c #5A5A5A",
"_.	c #595959",
":.	c #5B5B5B",
"<.	c #464546",
"[.	c #414142",
"}.	c #535454",
"|.	c #575757",
"1.	c #606060",
"2.	c #585858",
"3.	c #565656",
"4.	c #464645",
"5.	c #646464",
"6.	c #626262",
"7.	c #636363",
"8.	c #4D4C4C",
"9.	c #414140",
"0.	c #4F5050",
"a.	c #525352",
"b.	c #5E5E5E",
"c.	c #616161",
"d.	c #5B5B5A",
"e.	c #676767",
"f.	c #606061",
"g.	c #5F5F5F",
"h.	c #666666",
"i.	c #4C4C4B",
"j.	c #535352",
"k.	c #5B5C5C",
"l.	c #686868",
"m.	c #6B6B6B",
"n.	c #6C6C6C",
"o.	c #595858",
"p.	c #5B5B5C",
"q.	c #696969",
"r.	c #6A6A6A",
"s.	c #737373",
"t.	c #707070",
"u.	c #505051",
"v.	c #4E4E4F",
"w.	c #656565",
"x.	c #696A6A",
"y.	c #717171",
"z.	c #6F6F6F",
"A.	c #3B3B3A",
"B.	c #4F4F50",
"C.	c #515152",
"D.	c #434344",
"E.	c #464746",
"F.	c #3F3F40",
"G.	c #454546",
"H.	c #525253",
"I.	c #555556",
"J.	c #595A5A",
"K.	c #4E4F4F",
"L.	c #464747",
"M.	c #49494A",
"N.	c #4C4C4D",
"O.	c #272627",
"P.	c #262626",
"Q.	c #2C2C2B",
"R.	c #292928",
"S.	c #252526",
"T.	c #3F3E3E",
"U.	c #363635",
"V.	c #383837",
"W.	c #3D3C3C",
"X.	c #3E3D3D",
"Y.	c #484847",
"Z.	c #343333",
"`.	c #404041",
" +	c #4D4D4C",
".+	c #494A49",
"++	c #454444",
"@+	c #3D3E3E",
"#+	c #4B4B4C",
"$+	c #4A4A4B",
"%+	c #242424",
"&+	c #242323",
"*+	c #232222",
"=+	c #212120",
"-+	c #242425",
";+	c #2A2A2B",
">+	c #575756",
",+	c #555656",
"'+	c #3C3B3B",
")+	c #3B3B3C",
"!+	c #4B4B4A",
"~+	c #5F605F",
"{+	c #252524",
"]+	c #3A3A39",
"^+	c #5F5F5E",
"/+	c #4E4D4D",
"(+	c #464545",
"_+	c #252424",
":+	c #2A2A29",
"<+	c #6F7070",
"[+	c #727272",
"}+	c #6D6D6D",
"|+	c #222322",
"1+	c #484747",
"2+	c #757575",
"3+	c #777777",
"4+	c #646465",
"5+	c #585959",
"6+	c #515252",
"7+	c #494848",
"8+	c #6B6B6C",
"9+	c #444545",
"0+	c #3F4040",
"a+	c #747474",
"b+	c #767676",
"c+	c #727373",
"d+	c #6F6F70",
"e+	c #5E5E5F",
"f+	c #6D6D6E",
"g+	c #3E3F3E",
"h+	c #656566",
"i+	c #4B4C4C",
"j+	c #272827",
"k+	c #343433",
"l+	c #353434",
"m+	c #403F3F",
"  . + @ # $ % % & & % . * * = = - %   * * + & * % + % . % *   ;   % % > , ' * % +   ) ! ~ ) { ) { ) = ] ] = + + = % * = ; = ] ; ",
"+ & % . # ^ ) = . * * *   + = ) / @ ( @ . & % +   ] + % + % + *   + = _ _   ] ; ;   : < : [ } ) ] ;   ) + %       % %   =   = = ",
"+ %   + | 1 ) % % 1 * = + & 2 < ] . . 3 . .   = < ) ] ) ; < ] + =   ; 4 4 & % { : 5 < ) : { ; + = = %   % + + % = ; 6 ;   ) 7 % ",
"= ] ) + 8 9 ; 0 . @ ] ) = % ^     = % & @ % % ~ 5 < { { ) < { = < + ] _ > ) ; ) ~ ) ; % = a ] + = =   + * * + ; { 5 ; < % = ] * ",
") b = . c @ { ]   = 5 { % @ d . @ * @ !     % < ) e f ; 7 ) g : ~   % h i )   % { = =   ] < ) + + +     % 3 < ) j ; ; + ;   + % ",
"& = . k c ^ l ( k m & . . n _ _ o o $ + m m m m 1 * 1 . ' =   1 @ ^ p q r + . . ; @ * @ % + & s . * . t % = + =   + @ & * & . * ",
"u v w v x u y y y y y y w w z z y u v u y z z A z B C z D u v z w B C y E y A v D F u B G w C v w v y y u w G u D y y u v H H I ",
"n o $ o J # 4 J _ , o , o K , , , L o i M i n $ @ 1 K | $ & K m k ^ 1 $ n n K n o o n i K , i i K N , K , K o k i i J _ m ^ k m ",
"+   = * n k 1 ^ 1 O @ @ P % k & . * =       = Q ~ :   8 m < * * & % ) . 1 & * k   = < * * % @ $ . + % . * < - = ^ % R R . * 5 % ",
"= * + + m @ % . . * S T ] % % . * % % : ; < ; : / < < U V ; % % & W   m & 0 * * X ] % + ]   * m & ) & ] = 5 5 =   = J # + {   & ",
"= % ; ; & % % + + * * = ) ] * %   + ) ~ 5 : ; Y / { = | & ; ]   & 6 ;   + ] ] ) : ) = ) :   ; .   Z X < = { ~ ` = + _ #  .] ] ; ",
"+   { = % & + ] ; = % + { < % % ; ; = 5 ) < ~ ~ - : % ..1 < e ] ] ; +.@.~ e ] { #./ / $.+.e ~ ] { +.%.+.{ &.@.~ ) = *.# =.) < % ",
"= ; ) = + . &     + -.) 5 : ; ) ] + < 5 ; { - ;.e ) % U m { e 5 ; ~ - e #.- 5 e >.%./ $.,.%.'.) ).$.!.$.- { ` 5   ) , J & ] = + ",
"  + * *   ~.  & @ . % ; : { ] ] < ) { < ~ %./ e {.= + c 1 ~ / ~ < : './ ].^.+.^./.%.: $.(.$.$.{ / - _.:.+.~ @./ { ] K J ] ) ;   ",
"7   = . . @   & & @ * 5 g / ;   5 ! ) 5 e - / / '.<.[.# * +.>.e &.e }.|.(.1.2._.3.e 4._.5._.(.{.+.].6.7.,.- 8.$./ : > U   < 5 = ",
") < = * *   =   9.  = < ~ / 5 = { e e e - 0./ - / {   # = a.^.- ) / !.^./.b.b.c.>.< { d.e.].f.,.2.g.h.e.(.>.- i.,.j.k _ ! e : = ",
"] <   % *   -.+ = % + % g e ; ; ;.e - e %.#./ / ~ < = # ) !.!./ : %./ %.2.].k.b.!.: ~ b.l.g.].(.g.5.m.n.7.o.'.{ '.e ^ > ] : 5   ",
") ) %  .@ * + % j e & & < e ; ) ~ : / : 5 +.#.'.e 5 ] R ] 3.+.: ~ : e 5 e 2.].p.3.: %.2.e.e.q.l.r.q.s.t.e.|.,./ - #.n , ; { ;.-.",
"< { ) 6 & % & & & ; & & { ~ : < 5 : ~ : : %.%./ %.{ ; R ] >.!.5 : ~ : : ~ / +.!.u.- v./.6.c.q.w.m.x.y.z.e.!.'.e +.3.^ o ] < < ] ",
"5 - ] A.% & % + & *   + < ~ { < ! : { { 5 e e - %.< ] R   #.$.'./ #.%.#.$.%.- #.#.~ $./.h.h.e.r.7.l.n.w.(.B.>.C.(.^.$ n D.) ) < ",
"E./ { * % % % % . F.; = ) 5 D.< { ; G.{ < 5 : - e )   J ] '.C.,.,.^.H.3._.I.,.,.|./ ,.|.2.>.$.,.2./.b.2.+.>._.(.J.K.1 i { ~ { : ",
"< / e * = < <     ) { < : { < < [.  ] } ! 5 L.- 5 ; ] 4 . { / e e - 5 / +.+.>.$.+.%.- %./ M.] + 5 { / './ N.>.!.!.#.1 ^ - e e / ",
"i n M c 4 , i _ N i K K o i 4 4 q _ J 4 > > R _ 4 _ > # U # J 4 c J 4 , N ^ k $ n K , o i , O.c # R > , , K n 4 K o h 4 i i ^ o ",
"P.E ..c ..# # Q.c c # J # | # | U | U R # R # R.U U # c R c | c c U U S.P.U | P.| c U # c P.R U # | 8 U | | | O.| J c P.U U | P.",
"k , ^ . P.K & + & m + % * % + % . & &     ; . @ @ T.& % ]   % T * k , | J ; % % ; 6 ; ] + ; ) [.{ 5 & % + ) @ . * + + U.1  .1 A.",
"k o = 1 U i & * 1 k . %   + + . % * 1 ^ * = ^ k @ * 1 .   . . 1 @ k i | # ) ] ) < { ) ~ < = = ] ] = % @ . . V.k k = * @ 1 . k O ",
". 1 * * P.> . % * W @ *   @ * . ) = * 1 % = % @ % %  .% = & W.m k ^ $ R J ] e < ; - ; < ; 0 1 ) ] ] & 1 . * k m $ 1 @ & 1 @ * 1 ",
"@ @ . . P.M & = & * *   ] & % % ) ] + * 9.) % X.+ ] % ] + * @ 1 m ^ k 4 Q.+ + 5 < / Y.e ; 1 & ; 6 = * m ; + . 1 K m & % & + X & ",
"    + . ..$ + < = ] =   ; * . + ) ] = = 5 ; + +   = W 5 % % . o m k ^ U R ] & ; &.5 % : ; O . ]   ; * W ; . 1 k o k & * @ + = % ",
"+ ] & k | U.+ =   + % = + T.    ] =   ] = = % * & %  .  * . . 1 & & & # , + @ { Y.Z = 5 { . * = < { .   ] k m Z.o ^ 1 @ k & + & ",
"; ; { @ E $   ; ) = + + % * = ) < )   = < X ] @ & @ . T & * * * = % * U > { Z #.: { ~ e < %   5 : {   + = . ] % 1 . 1 0 k   + : ",
"; Y.< + | $   ] =     + +  .; { ] 5 ; ; 5 9.& = * . . < ; + = * + + + 4 > e < : < ) ` e { ; T ) ] ~ = % { = * % * %   & &   = 5 ",
"< ; ; * U % ) ; 5 ] < < ) ; : 5 : ) ; ; ) = % = * 6 = { 4.]   % % &   i , ~ 5 < 5 { - / ; ~   X ] ) P 5 { { + * ] `.; [.* { ) { ",
"5 ) a & U + 5 - e 5  +5 G.5 e 5 .+) = ; < ) = % = ] ) < < ) ) < ) 3 + i i @.] < : { / / ; : ) 5 = ++  : P = + % = * * 6 % < ) < ",
"< < ] @+| @ ; ~ ~ ;.~ 5 : 5 ~ ~ #+g ) < ) = . + % ) < ] 4.{ < ;   % % i i e } < : 4.~ ~ + { < : ; ; %   T % 0 & % ] = +   ) ) 5 ",
"< ] = = P.& ] ] < : ~ e ~ : ! { : : < ) ) ]   [.] < ) ) ] < < < + . = , i : ) { e ) ~ e : 5 : - { ;   % . & T.* + < ) ) { ; : ) ",
"{ = ; = P.+ 5 5 : %.'.'.: ~ { ~ { 5 ) ; ] ) ; ; ] = ] ; ; ; ] ] = % ] > r ;.; { e { ~ e ! ) &.5 ` ; + * & ] =   ] ) 5 : { < < ; ",
"5 ] ) = c = '.: e #.,.+./ %.$+- ~ : < ~ ! 5 5 ) 5 : ; } 5 < : ; ; ] ) K _ ; = ) : 5 5 - { ] 5 e ] + + + & ] = ; 5 ~ : ; e / / ] ",
"% ( @ 1 # 1 ) ) ) : 5 : ) ) ; = X = ; ) + + % * + % @ @ *   % . m @ & $ 4 . ^ ^ . 1 * + & 1 . . m k m @ @ & * & + = & +   + ] % ",
"..x x x %+&+%+..%+..*+%+E E ..E ......%+E H H H H D H y ..%+E ....=+..8 -+H u D D y D y D D H H x D H x H x x E %+..x ..%+P.%+8 ",
"$ k o $ k ^ k . 1 n $ @         % + 1 % A.k k k $ m o ..o k * $ K K o i o $ n n n %   m o o n K K k k m k $ $ ^ @ * ;+> 1 1 @ @ ",
"%   . % = + ) { <   ] : e #.'.e ) : : $.- { ] + & + @ %+m   + + & % & @ .   &   = ) ~ . . = = % ; = ) + ] + ; = { @ R _ = ; =   ",
") ) ;   =   &.: 5 Y.{ '.+.$.'.'.{ = : >+2.$.~ < + 9.. E 1 6 %   + m . 1 @ )       ; <     ] + + = < Y.5 Y.5 < < { ) 4 J = ] & % ",
"; <   *   &.] ) ; < / !.2.3.,+e ) < ~ 3.7.b.>.: = &.. %+1 % & = + . m k @ & % + & ; ; ;   % '+)++ ~ @.- !+< ) ] < D.K J . 9.% = ",
") 5 * & + ) ) ]   < +.(./.|.2.:   ; - ^.~+:./ ~ + { % {+$ ]+* ] '+& @ 1 & = &  .1 + % * & ] % + * < ) ~ e ] = ] ) < o U T   = { ",
"< 5 =   ) { < ; e { !.g.c.|.^+e   P e %.!.b.- ) % ) * %+^ ^ ~.P = ] @ 0 + % %   @ % W =   9.& 9.{ : < /+: { < { < 7 i # * ; ] { ",
"5 @.]   Y.~ (+; e Y ^.6.e.g.r.#.) 5 '.%.#.^.~ )   ; O _+^ % 1 ] = = 0     . & & @ + %   + % * + ) 5 < : 4.< < { < ) , J * = ; M.",
"` ~ ; = ` !+) { e e >.7.r.n.t.].- #.$.N.~ e ~ X +   @ E $ % @ ) =   & % 0 % & ) = { % = + : ) { ~ @.5 ~ ~ : ~ : :   J :++ ; 5 ;.",
"e e =   < e Y.: %.#.2.e.<+t.[+}+_.(.!.|.$.%.+.'.< ) * |+k ) % : ) < % . + % * W 9.< ) = -.= : 1+) 5 : e e 5 (+~ : < K 4   { 5 5 ",
"5 / ]   { Y e 5 - %.].}+s.2+3+y.6.b.c.n.e.4+b.5+^.6+~ P.1 <   ; = = + ) ) ] & & { : < ; ] = 5 Y ) { e %./ / : 7+e e o i ; e 5 5 ",
"~ i.) = b ;.e : - e _.r.s.2+2+t.q.e.q.z.m.8+1./._.3.&.P.k <   ) = ; % ] 6 % . & 5 5   % ] 5 ~ - 5 < 5 - - e ` : : 9+K n ; ~ ~ : ",
"e < + 0+< ~ 5 { { b |.8+a+2+b+c+<+d+5.5.6.b.>.|.$.$.; %+^ ) = { D.+ * + & m t %     = ; ] ) 7 : < ~ { %.{ = : e 5 5 $ o ) ~ ) < ",
": )     ) e { < ; ) u.e+f+<+2+t.<+h./.c./.1.>.- - b * %+& ] = ) ; & @ 1 & @ * . 1 ) ) ] < + { < [.: ) 5 ~ < { e ~ e o o { e <   ",
"; ] g++   = + ) { ~ +.(.h+r.m.n.5.f./.6./.(.v.; = + @ E 3 ; ) ) ]   + * @ & + 1 * ] 5 5 { ; D.~ < ~ 5 e - 5 5 '.%.'.o o : e < ] ",
"@ % . @ . O * + ) b ~ ,.b./.w.].3.^.,.^.|.'.~   & ] . %+% = `.) * % % . 1 & . t + + ; ) { { 5 5 < { - : i+~ e #.'.#.$ ^ '.e = g+",
"..E u H x D ..%+| U U R > _ , J U | # _ J 4 | 8 ..| %+x # | %+P.8 | U %+E %+x x ..8 %+# 4 J R c | P.R 4 J _ *.> > *.U # 4 J U x ",
"c R U U x U | 8 P.| # # J j+U U # J R R 4 J # # J 4 _ i i i i > 4 J > J # > 4 c J J 4 J # 4 R 4 J J J _ J J _ R _ _ > i , i 4 J ",
"'+& m k+..i @ n . . * + & & . . . + * & % * . @ . ' = < = ] ) ) < ) 5 i J % & . . = = + * [.`.= * + F.] = * & @ + + =   = ; ] = ",
"@ * . l+%+i . @  .% = & = @ . m . % + + & 0 . & *   ] ; = ] { 5 5 ) { , c W m++ &   ) ] = 7 ] ; ] = ; ] ] + = + %   % %   = + + ",
"; = % 1 | K . * % & < = X . ^ k @ & & @ + * @ & * &   W ) ) = < { 5 < r R % ; X.%   ; ] = ) ] ) ) ; ; < ) ] )   + ' % { { { ] + ",
"=   @ & | k % & : *   ; ; * + + * @ @ 1 + ) + % % = { ) &.  ] e { < = _ R   ; + *   ] + ; D.; ) : ; ) { { : 5 = ] %   } ; < [.  ",
"* = * . %+m @ k ] * % = = ' + %   . * & % ;   % = ; &.+ % + ] : { ) = i J   = + = ] ) ; ! = = : ~ ) ) 7 ; < { D.]   = ] ] : ]   ",
"& * & & _ + @ .   = + + + & ; & & . + . . ; + .   -.) ] ]   = < % * + $ , + * % +   ] ) 5 5 { { 5 < <   5 ) ) = = ] D.) ; < ] F.",
"* & & T > * . . +   + * @ . = & * + + @ * = * . * % * %   & ] =   @ % $ > * + 3 * %   ] < < ) < < < + ] ; ]   *     * } ; ] ; = "};
