/* XPM */
static char *_06b4434405c42e6aae45cee3b63344605gS28COMbNnKVYP[] = {
/* columns rows colors chars-per-pixel */
"64 64 2 1 ",
"  c #ED1C24",
". c #FFA3B1",
/* pixels */
"................................................................",
"................................................................",
"................................................................",
"................................................................",
"....................................................    ........",
"......................................                   .......",
"................................                         .......",
"............................                             .......",
"............................                              ......",
".............................                             ......",
".............................                             ......",
"..............................                             .....",
"..............................                             .....",
"...............................                            .....",
"................................                           .....",
"..................................                         .....",
".....................................                      .....",
"....................................                       .....",
"..................................                         .....",
"................................                           .....",
"...............................                             ....",
".............................                               ....",
"............................                  .             ....",
"..........................                   ....           ....",
"........................                     .....          ....",
"........................                    ......          ....",
".......................                    .........        ....",
"......................                     ..........       ....",
".....................                     .............     ....",
"....................                     ...............    ....",
"...................                    .........................",
"..................                    ..........................",
".................                    ...........................",
".................                   ............................",
"................                    ............................",
"...............                    .............................",
".............                     ..............................",
"............                      ..............................",
"...........                      ...............................",
"...........                     ................................",
".........                      .................................",
"........                      ..................................",
"........                     ...................................",
"......                      ....................................",
".....                      .....................................",
".....                     ......................................",
"....                     .......................................",
"....                    ........................................",
"....                    ........................................",
"........               .........................................",
".........             ..........................................",
"..........           ...........................................",
"............        ............................................",
"..............     .............................................",
"................................................................",
"................................................................",
"................................................................",
"................................................................",
"................................................................",
"................................................................",
"................................................................",
"................................................................",
"................................................................",
"................................................................"
};
